<?xml version="1.0" encoding="UTF-8"?>
<svg id="svg8" width="4740.7pt" height="750pt" version="1.1" viewBox="0 0 4740.7 750" xmlns="http://www.w3.org/2000/svg" xmlns:cc="http://creativecommons.org/ns#" xmlns:dc="http://purl.org/dc/elements/1.1/" xmlns:rdf="http://www.w3.org/1999/02/22-rdf-syntax-ns#">
 <metadata id="metadata5">
  <rdf:RDF>
   <cc:Work rdf:about="">
    <dc:format>image/svg+xml</dc:format>
    <dc:type rdf:resource="http://purl.org/dc/dcmitype/StillImage"/>
    <dc:title/>
   </cc:Work>
  </rdf:RDF>
 </metadata>
 <g id="layer1" transform="translate(35.162 462.97)">
  <g id="g1608" transform="matrix(24.597 0 0 24.597 829.73 -6773.2)" fill-rule="evenodd">
   <polygon id="Fill-31" transform="matrix(.75 0 0 .75 -35.162 256.43)" points="23.254 6.456 14.229 40.264 31.087 40.264 40.112 6.456 52.341 6.456 53.751 1.173 0 1.173 6.4846 6.456"/>
   <polygon id="Fill-33" transform="matrix(.75 0 0 .75 -35.162 256.43)" points="192.64 40.262 198.7 17.547 181.84 17.547 175.78 40.262"/>
   <polygon id="Fill-35" transform="matrix(.75 0 0 .75 -35.162 256.43)" points="68.811 14.898 77.13 40.262 78.103 40.262 98.124 14.799 91.329 40.264 108.19 40.264 118.62 1.173 100.9 1.173 86.105 19.808 80.112 1.173 56.334 1.173 62.818 6.456 53.795 40.264 62.04 40.264"/>
   <polygon id="Fill-37" transform="matrix(.75 0 0 .75 -35.162 256.43)" points="164.9 22.831 166.31 17.547 145.34 17.547 148.3 6.456 173.33 6.456 174.74 1.173 124.96 1.173 131.44 6.456 122.42 40.264 164.3 40.264 165.71 34.982 140.68 34.982 143.93 22.831"/>
   <polygon id="Fill-39" transform="matrix(.75 0 0 .75 -35.162 256.43)" points="179.27 1.173 198.82 17.099 203.07 1.173" fill="#f00"/>
   <path id="Fill-41" d="m118.85 270.82c-1.047 3.9222-0.17856 8.0303 2.4734 11.046 2.892 3.2941 8.7129 5.162 15.917 5.162 8.3029 0 12.894-1.5617 12.894-1.5617l1.4574-5.4612s-4.0637 1.7358-10.983 1.7358c-9.7887 0-11.891-6.4365-10.5-10.93 1.8337-5.9239 7.4111-9.8175 15.918-9.8175 6.7751 0 10.232 1.6179 10.232 1.6179l1.308-4.9s-3.8844-1.1742-11.858-1.1742c-14.247 0-24.322 4.7755-26.859 14.283"/>
  </g>
 </g>
</svg>
